PathFileType	4	(X/Y/Z)	Walk7.trc
DataRate	CameraRate	NumFrames	NumMarkers	Units	OrigDataRate	OrigDataStartFrame	OrigNumFrames
200.000000	200.000000	6	61	mm	200.000000	369	437
Frame#	Times		LFHD		RFHD		CLAV		STRN		LASI		RASI		RACR1		RUA1		RFA1		RWRU		RCAR		LACR1		LUA1		LFA1		LWRU		LCAR		RTH3		RTB4		LTH1		LTH3		LTH2		LTH4		LLFC		LTB1		LTB3		LTB2		LTB4		RTB1		RTB3		RMT5		RMFC		LBHD		RWRR		RTH2		RToe		RMT1		LElbow		RLFC		LWRR		RTB2		RMMAL		RTH4		RElbow		LMFC		LToe		LPSI		T10		RBack		RLMAL		RBHD		RTH1		RCAL		RPSI		C7		LElbowM		LMMAL		RElbowM		LLMAL		LCAL		LMT5		LMT1
			X1	Y1	Z1	X2	Y2	Z2	X3	Y3	Z3	X4	Y4	Z4	X5	Y5	Z5	X6	Y6	Z6	X7	Y7	Z7	X8	Y8	Z8	X9	Y9	Z9	X10	Y10	Z10	X11	Y11	Z11	X12	Y12	Z12	X13	Y13	Z13	X14	Y14	Z14	X15	Y15	Z15	X16	Y16	Z16	X17	Y17	Z17	X18	Y18	Z18	X19	Y19	Z19	X20	Y20	Z20	X21	Y21	Z21	X22	Y22	Z22	X23	Y23	Z23	X24	Y24	Z24	X25	Y25	Z25	X26	Y26	Z26	X27	Y27	Z27	X28	Y28	Z28	X29	Y29	Z29	X30	Y30	Z30	X31	Y31	Z31	X32	Y32	Z32	X33	Y33	Z33	X34	Y34	Z34	X35	Y35	Z35	X36	Y36	Z36	X37	Y37	Z37	X38	Y38	Z38	X39	Y39	Z39	X40	Y40	Z40	X41	Y41	Z41	X42	Y42	Z42	X43	Y43	Z43	X44	Y44	Z44	X45	Y45	Z45	X46	Y46	Z46	X47	Y47	Z47	X48	Y48	Z48	X49	Y49	Z49	X50	Y50	Z50	X51	Y51	Z51	X52	Y52	Z52	X53	Y53	Z53	X54	Y54	Z54	X55	Y55	Z55	X56	Y56	Z56	X57	Y57	Z57	X58	Y58	Z58	X59	Y59	Z59	X60	Y60	Z60	X61	Y61	Z61

369	1.845	1104.4	1575.1	-84.746	1098.1	1578.6	14.771	1068.6	1294.5	-30.607	1083.6	1158.1	-22.882	1031.3	897.94	-117.43	1023.9	897.78	130.71	1011.5	1338.5	135.48	1006.5	1172.8	197.79	1088.4	901.51	256.41	1175.8	817.9	216.08	1190.9	750.77	262.47	991.91	1337.1	-184.26	944.26	1166.9	-237.19	856.25	892.38	-281.1	874.19	767.42	-275.74	821.57	715.45	-305.86	954.89	558.05	171.96	784.7	269.77	118.61	1005.8	734.41	-187.87	1052.4	573.56	-147.24	1083	674.17	-154.79	1028.9	652.72	-169.83	1093.3	441.28	-122.09	1131.1	345.64	-52.031	1115.1	176.31	-35.679	1110.2	256.22	-104.68	1120.5	260.19	-44.557	859.21	315.34	124.42	710.42	227.29	110.54	574.28	94.842	123.36	910.98	404.89	24.477	967.12	1500.3	-112.53	1126.3	787.89	251.89	1012.2	644.03	158.14	621.27	31.945	75.432	604.2	78.111	43.891	877.81	1025.1	-252.96	926.16	409.31	153.18	807.33	785.09	-267.79	758.58	309.09	158.5	612.46	211.19	47.711	960.2	640.73	183.81	1003.8	1008.3	242.43	1072.4	433.81	8.4547	1256.5	27.728	-29.828	853.34	952.73	-46.189	873.61	1197.8	-11.084	880.96	1287.3	54.869	588.42	214.65	126.77	960.8	1512.1	32.229	968.52	726.35	199.96	552.2	252.9	85.314	854.12	946.7	53.967	961.16	1401.9	-33.017	869.13	1008.8	-178.56	1073.7	83.647	1.9505	968.77	996.11	171.47	1064.4	63.216	-77.948	1007.2	35.367	-37.456	1170.2	23.421	-87.302	1200.8	30.717	-3.5893
370	1.85	1112.3	1576	-85.303	1106	1579.8	14.202	1075.9	1295.7	-30.585	1090.8	1159.2	-22.839	1038.7	899.31	-118.14	1031.2	899	130.27	1018.6	1339.8	135.28	1013.6	1174	197.44	1093.5	901.59	256.28	1179.9	816.58	216.43	1193.9	749.46	263.15	999.67	1338.2	-184.34	953.64	1167.7	-237.76	869.89	892.09	-283.25	889.89	767.51	-277.98	838.51	714.93	-309	967.6	558.6	171.87	799.2	271.19	117.9	1012.4	735.26	-188.22	1057.3	573.88	-147.68	1089	674.15	-155.25	1034.5	653.31	-170.18	1096.8	441.04	-122.53	1133.9	345.09	-52.465	1116.1	175.93	-35.933	1111.9	255.82	-105	1122.4	259.74	-44.897	874.26	315.97	123.7	724.45	229.5	109.88	587.96	98.573	123.63	926.87	404.97	23.999	974.76	1501.4	-112.87	1129.8	787.38	252.16	1023.4	645.61	157.75	634.49	34.17	76.515	618.02	81.073	44.493	888.96	1025.3	-254.67	941.57	409.56	153.06	822.65	784	-270.64	773.78	310.43	158.34	626.29	214.47	47.229	971.5	641.36	183.58	1010.3	1009.3	241.77	1076	433.83	8.0096	1256.5	27.563	-29.879	860.63	953.67	-46.325	880.87	1199	-11.366	888.13	1288.6	54.626	602.28	218.17	126.28	968.5	1513.6	31.869	978.25	727.19	199.49	565.96	256.42	84.695	861.35	947.61	53.719	968.5	1403.1	-33.229	879.83	1008.6	-180.23	1073.8	83.71	1.8377	975.7	997.36	170.45	1064.3	63.22	-78.069	1007.2	35.388	-37.547	1170.1	23.484	-87.496	1200.6	30.782	-3.6343
371	1.855	1120.1	1576.8	-85.834	1113.8	1581	13.657	1083.2	1296.9	-30.522	1097.9	1160.3	-22.75	1046.1	900.66	-118.81	1038.5	900.33	129.86	1025.7	1341.1	135.13	1020.5	1175.1	197.14	1098.5	901.71	256.2	1183.9	815.31	216.78	1196.8	748.19	263.78	1007.4	1339.4	-184.39	962.92	1168.7	-238.32	883.61	891.89	-285.35	905.74	767.75	-280.16	855.67	714.55	-312.06	980.17	559.38	171.79	813.93	272.68	117.17	1019	736.1	-188.52	1061.9	574.18	-148.07	1094.8	674.09	-155.63	1040	653.88	-170.48	1100	440.78	-122.92	1136.4	344.56	-52.875	1117	175.57	-36.181	1113.5	255.43	-105.3	1124.1	259.3	-45.219	889.46	316.8	122.97	738.81	231.67	109.2	602.52	101.97	123.83	942.65	405.42	23.547	982.35	1502.5	-113.18	1133.3	786.95	252.47	1034.5	647.39	157.43	648.89	36.459	77.403	632.7	83.858	44.965	900.1	1025.5	-256.33	956.98	410.08	152.94	838.14	783	-273.42	789.11	311.83	158.12	640.51	217.52	46.67	982.7	642.21	183.43	1016.7	1010.4	241.14	1079.3	433.83	7.5978	1256.6	27.46	-29.934	867.93	954.67	-46.54	888.08	1200.2	-11.654	895.23	1289.9	54.376	616.48	221.37	125.7	976.15	1515.2	31.544	987.89	728.22	199.08	579.91	259.44	83.987	868.57	948.59	53.403	975.75	1404.4	-33.409	890.54	1008.5	-181.89	1073.9	83.762	1.747	982.59	998.65	169.48	1064.3	63.225	-78.168	1007.1	35.413	-37.616	1170	23.558	-87.657	1200.5	30.867	-3.6742
372	1.86	1127.9	1577.7	-86.334	1121.7	1582.1	13.14	1090.4	1298.2	-30.426	1105	1161.6	-22.62	1053.4	901.97	-119.44	1045.8	901.76	129.46	1032.5	1342.4	135.03	1027.4	1176.4	196.89	1103.4	901.89	256.15	1187.8	814.1	217.13	1199.6	746.98	264.39	1014.9	1340.7	-184.41	972.11	1169.7	-238.86	897.41	891.8	-287.39	921.75	768.14	-282.28	873.02	714.33	-315.03	992.62	560.38	171.73	828.88	274.24	116.46	1025.5	736.94	-188.77	1066.5	574.47	-148.41	1100.6	673.99	-155.92	1045.4	654.45	-170.74	1103.1	440.51	-123.25	1138.7	344.05	-53.257	1117.9	175.22	-36.419	1114.8	255.05	-105.57	1125.6	258.88	-45.519	904.78	317.81	122.25	753.48	233.76	108.51	617.9	105.01	123.97	958.33	406.22	23.128	989.9	1503.8	-113.45	1136.7	786.6	252.82	1045.6	649.35	157.19	664.38	38.762	78.103	648.19	86.434	45.312	911.24	1025.8	-257.96	972.36	410.86	152.82	853.79	782.1	-276.11	804.58	313.27	157.84	655.1	220.29	46.049	993.79	643.28	183.36	1023.1	1011.5	240.55	1082.2	433.8	7.2221	1256.6	27.401	-29.988	875.26	955.73	-46.828	895.26	1201.4	-11.952	902.24	1291.2	54.115	631.02	224.21	125.05	983.77	1517	31.253	997.43	729.42	198.73	594.05	261.94	83.208	875.8	949.64	53.028	982.9	1405.6	-33.561	901.26	1008.4	-183.52	1074.1	83.807	1.6785	989.42	999.96	168.56	1064.3	63.233	-78.245	1007.1	35.447	-37.666	1169.9	23.635	-87.787	1200.5	30.959	-3.7067
373	1.865	1135.7	1578.6	-86.8	1129.5	1583.3	12.657	1097.6	1299.5	-30.305	1112.1	1162.9	-22.455	1060.8	903.25	-120.03	1053	903.28	129.09	1039.3	1343.7	134.97	1034.1	1177.6	196.69	1108.3	902.12	256.14	1191.6	812.96	217.49	1202.3	745.82	264.96	1022.5	1342	-184.41	981.22	1170.8	-239.4	911.27	891.8	-289.37	937.88	768.69	-284.33	890.56	714.27	-317.91	1004.9	561.59	171.68	844.03	275.83	115.75	1031.9	737.77	-188.96	1070.9	574.76	-148.72	1106.2	673.87	-156.13	1050.7	655.01	-170.95	1105.8	440.25	-123.53	1140.8	343.56	-53.611	1118.7	174.9	-36.644	1116.1	254.7	-105.82	1127.1	258.48	-45.796	920.22	319	121.56	768.44	235.74	107.83	634.04	107.65	124.04	973.91	407.33	22.748	997.41	1505.2	-113.7	1140	786.32	253.21	1056.5	651.47	157.02	680.88	41.029	78.629	664.43	88.769	45.542	922.38	1026.1	-259.53	987.72	411.9	152.72	869.6	781.3	-278.72	820.14	314.75	157.52	670.03	222.77	45.376	1004.8	644.55	183.39	1029.3	1012.7	240	1084.8	433.75	6.8849	1256.6	27.369	-30.039	882.6	956.83	-47.181	902.4	1202.6	-12.264	909.19	1292.4	53.839	645.87	226.67	124.35	991.35	1518.8	30.993	1006.9	730.77	198.42	608.38	263.92	82.373	883.02	950.74	52.604	989.97	1406.9	-33.687	912.01	1008.4	-185.12	1074.2	83.846	1.6311	996.19	1001.3	167.72	1064.2	63.246	-78.3	1007.1	35.496	-37.699	1169.8	23.711	-87.888	1200.4	31.048	-3.7304
374	1.87	1143.6	1579.5	-87.229	1137.4	1584.6	12.209	1104.7	1300.9	-30.166	1119.2	1164.3	-22.258	1068.1	904.48	-120.55	1060.3	904.89	128.75	1045.9	1345.1	134.96	1040.7	1178.9	196.53	1113.1	902.4	256.17	1195.3	811.88	217.86	1204.9	744.72	265.51	1029.9	1343.4	-184.4	990.24	1171.9	-239.92	925.19	891.92	-291.28	954.13	769.4	-286.3	908.27	714.37	-320.69	1017.2	562.98	171.64	859.37	277.43	115.06	1038.4	738.59	-189.09	1075.2	575.04	-148.98	1111.8	673.73	-156.24	1056	655.57	-171.12	1108.4	439.99	-123.75	1142.8	343.1	-53.933	1119.4	174.6	-36.854	1117.2	254.38	-106.05	1128.5	258.1	-46.048	935.76	320.33	120.9	783.67	237.6	107.16	650.85	109.89	124.04	989.4	408.72	22.411	1004.9	1506.6	-113.92	1143.3	786.13	253.65	1067.4	653.73	156.92	698.31	43.22	79.001	681.37	90.839	45.668	933.5	1026.5	-261.07	1003	413.18	152.62	885.55	780.63	-281.24	835.8	316.24	157.14	685.3	224.9	44.661	1015.7	646.02	183.51	1035.6	1013.8	239.48	1087.2	433.68	6.5883	1256.7	27.354	-30.085	889.96	957.98	-47.588	909.52	1203.9	-12.593	916.09	1293.7	53.545	661.02	228.72	123.6	998.9	1520.7	30.762	1016.2	732.26	198.17	622.89	265.36	81.491	890.26	951.89	52.143	996.96	1408.3	-33.789	922.78	1008.4	-186.7	1074.4	83.884	1.6024	1002.9	1002.7	166.93	1064.2	63.267	-78.336	1007.1	35.565	-37.716	1169.8	23.783	-87.964	1200.3	31.13	-3.7452
